<?xml version="1.0" encoding="UTF-8" standalone="no"?><!DOCTYPE svg PUBLIC "-//W3C//DTD SVG 1.1//EN" "http://www.w3.org/Graphics/SVG/1.1/DTD/svg11.dtd"><svg width="100%" height="100%" viewBox="0 0 487 254" version="1.1" xmlns="http://www.w3.org/2000/svg" xmlns:xlink="http://www.w3.org/1999/xlink" xml:space="preserve" xmlns:serif="http://www.serif.com/" style="fill-rule:evenodd;clip-rule:evenodd;stroke-linejoin:round;stroke-miterlimit:2;"><rect id="Artboard1" x="0" y="0" width="486.5" height="253.898" style="fill:none;"/><g transform="matrix(0.998991,-0.044921,-0.162712,1.008327,-80.635433,-4.00489)"><text x="106.501px" y="159.016px" style="font-family:'BBB-JURAge-Regular', 'BBB JURAge';font-size:208.333px;fill:#231f20;">L</text></g><g transform="matrix(1,0,-0.155998,1,1.294227,0)"><text x="124.98px" y="146.393px" style="font-family:'BBB-JURAge-Regular', 'BBB JURAge';font-size:197.281px;fill:#231f20;">M</text></g><g transform="matrix(1,0,0.158384,1,-1.314025,0)"><g transform="matrix(197.280548,0,0,197.280548,240.666975,146.392814)"></g><g transform="matrix(197.280548,0,0,197.280548,358.390048,146.392814)"></g><text x="240.667px" y="146.393px" style="font-family:'BBB-JURAge-Regular', 'BBB JURAge';font-size:197.281px;fill:#231f20;">Æ</text></g><text x="5.046px" y="244.579px" style="font-family:'BBB-JURAge-Regular', 'BBB JURAge';font-size:125px;fill:#231f20;">D<tspan x="85.546px 126.046px 209.171px 249.671px 320.421px 400.921px " y="244.579px 244.579px 244.579px 244.579px 244.579px 244.579px ">IGITAL</tspan></text><g transform="matrix(0.999834,-0.018213,-0.383948,1.00716,3.389448,1.731843)"><g transform="matrix(136.78822,0,0,136.78822,148.878899,104.537059)"></g><text x="98.541px" y="104.537px" style="font-family:'BBB-JURAge-Regular', 'BBB JURAge';font-size:136.788px;fill:#231f20;">I</text></g></svg>