<?xml version="1.0" encoding="UTF-8" standalone="no"?><!DOCTYPE svg PUBLIC "-//W3C//DTD SVG 1.1//EN" "http://www.w3.org/Graphics/SVG/1.1/DTD/svg11.dtd"><svg width="100%" height="100%" viewBox="0 0 252 253" version="1.1" xmlns="http://www.w3.org/2000/svg" xmlns:xlink="http://www.w3.org/1999/xlink" xml:space="preserve" xmlns:serif="http://www.serif.com/" style="fill-rule:evenodd;clip-rule:evenodd;stroke-linecap:round;stroke-linejoin:round;stroke-miterlimit:1.5;"><rect id="Artboard1" x="0" y="0" width="251.124" height="252.093" style="fill:none;"/><path d="M17.317,158.866c-3.229,-10.51 -4.967,-21.669 -4.967,-33.23c0,-16.197 3.411,-31.605 9.555,-45.546l-4.588,78.776Zm54.888,-133.093c15.969,-8.573 34.225,-13.438 53.611,-13.438c23.591,0 45.509,7.204 63.668,19.528l-69.45,0c-2.271,0 -3.833,0.611 -4.688,1.834c-0.854,1.223 -1.258,2.533 -1.212,3.93c0.093,2.795 1.103,4.76 3.03,5.895c1.927,1.135 3.396,2.14 4.407,3.013c1.591,1.223 2.895,2.838 3.912,4.847c1.017,2.009 1.806,4.236 2.368,6.681c0.562,2.445 1.071,5.109 1.528,7.991l6.411,40.48l31.187,72.838c1.657,3.843 4.945,7.511 9.865,11.004c2.143,1.397 4.205,2.838 6.187,4.323c1.982,1.485 3.244,2.838 3.787,4.061c0.994,2.969 1.419,6.201 1.273,9.694c-0.329,4.541 1.603,6.812 5.795,6.812l1.307,0c-19.187,14.835 -43.257,23.667 -69.378,23.667c-26.462,0 -50.821,-9.065 -70.129,-24.253c-0.332,-0.755 -0.779,-1.433 -1.342,-2.034c-1.472,-1.572 -2.907,-4.017 -4.306,-7.336c-1.086,-2.445 -1.823,-4.891 -2.21,-7.336c-0.387,-2.445 -0.6,-4.891 -0.638,-7.336c0.228,-2.969 1.05,-5.502 2.465,-7.598c1.415,-2.096 3.519,-3.144 6.314,-3.144c1.949,0.175 3.627,0.568 5.034,1.179c1.407,0.611 3.495,2.489 6.263,5.633c2.336,2.62 4.422,4.76 6.257,6.419c1.835,1.659 3.8,2.489 5.896,2.489c0.699,0 1.34,-0.087 1.924,-0.262c0.584,-0.175 1.285,-0.437 2.103,-0.786c0.965,-0.524 1.735,-1.179 2.309,-1.965c0.574,-0.786 1.105,-1.572 1.592,-2.358c0.487,-0.786 1.024,-1.528 1.612,-2.227c0.588,-0.699 1.406,-1.048 2.454,-1.048c2.39,-0.349 4.174,0.437 5.352,2.358c1.178,1.921 2.402,5.24 3.673,9.956c0.387,2.445 0.485,4.716 0.293,6.812c-0.403,2.969 -1.156,5.109 -2.258,6.419c-1.103,1.31 -1.198,3.188 -0.287,5.633c0.856,2.096 2.238,3.1 4.145,3.013c1.908,-0.087 3.358,-0.306 4.35,-0.655l63.827,-13.886c0.671,-0.175 1.227,-0.524 1.668,-1.048c0.882,-1.048 1.038,-2.271 0.467,-3.668c-0.598,-1.572 -2.247,-2.882 -4.946,-3.93c-2.699,-1.048 -5.175,-2.62 -7.428,-4.716c-1.472,-1.572 -3.04,-3.755 -4.706,-6.55c-1.665,-2.795 -3.156,-5.59 -4.472,-8.384c-1.316,-2.795 -2.395,-5.197 -3.237,-7.205c-0.842,-2.009 -1.277,-3.1 -1.305,-3.275l-43.241,-104.279c-1.537,-4.192 -3.111,-8.341 -4.722,-12.445c-1.611,-4.105 -2.546,-8.079 -2.805,-11.921c0.017,-2.096 0.214,-3.886 0.59,-5.371c0.376,-1.485 0.21,-3.362 -0.499,-5.633c-0.396,-1.397 -0.999,-2.445 -1.808,-3.144c-0.809,-0.699 -1.678,-1.223 -2.607,-1.572c-0.929,-0.349 -1.903,-0.437 -2.924,-0.262l-16.329,2.556Zm148.894,38.356c10.237,15.771 16.655,34.238 17.942,54.092c-1.456,-0.918 -2.962,-2.149 -4.517,-3.693c-2.902,-2.882 -5.586,-6.594 -8.052,-11.135c-2.466,-4.541 -4.901,-7.511 -7.306,-8.908c-2.405,-1.397 -4.508,-2.271 -6.31,-2.62c-2.151,-0.349 -3.834,-0.218 -5.047,0.393c-1.213,0.611 -2.325,1.31 -3.336,2.096c-1.011,0.786 -2.029,1.528 -3.053,2.227c-1.025,0.699 -2.498,1.048 -4.419,1.048c-1.048,0 -2.457,-0.349 -4.227,-1.048c-1.77,-0.699 -2.987,-3.144 -3.651,-7.336l-1.452,-9.17c-0.664,-4.192 -0.629,-7.555 0.105,-10.087c0.734,-2.533 1.908,-4.498 3.52,-5.895c1.613,-1.397 3.433,-2.314 5.459,-2.751c2.027,-0.437 4.088,-0.655 6.184,-0.655c1.048,0 2.59,0.087 4.627,0.262c2.036,0.175 4.326,0.568 6.868,1.179c2.136,0.514 4.357,1.181 6.665,2.003Zm16.237,82.482c-2.698,14.366 -8.114,27.78 -15.695,39.688c-0.753,-0.032 -1.497,-0.07 -2.231,-0.113c-2.997,-0.175 -5.663,-0.742 -7.999,-1.703c-2.336,-0.961 -4.324,-2.489 -5.966,-4.585c-1.642,-2.096 -2.767,-5.065 -3.376,-8.908l-7.428,-46.9c-0.498,-3.144 -0.108,-5.371 1.169,-6.681c1.277,-1.31 2.789,-1.965 4.536,-1.965c2.969,0 5.434,1.223 7.393,3.668c1.959,2.445 4.273,6.026 6.942,10.742c2.383,4.017 5.649,7.817 9.796,11.397c3.95,3.41 8.236,5.196 12.859,5.359Zm-157.251,0.274c1.914,4.367 3.13,7.904 3.646,10.611c0.516,2.707 -0.903,4.498 -4.258,5.371c-1.342,0.349 -2.629,0.218 -3.861,-0.393c-1.232,-0.611 -2.832,-1.616 -4.8,-3.013c-1.214,-1.048 -2.384,-2.096 -3.511,-3.144c-1.127,-1.048 -2.242,-1.747 -3.345,-2.096c-1.103,-0.349 -2.034,-0.437 -2.793,-0.262l-2.275,0.524c-0.758,0.175 -1.56,0.349 -2.406,0.524c-0.846,0.175 -1.995,0.087 -3.448,-0.262c-1.453,-0.349 -2.421,-1.223 -2.904,-2.62c-0.483,-1.397 -0.638,-3.755 -0.465,-7.074c0.32,-3.493 0.606,-7.205 0.856,-11.135c0.251,-3.93 0.453,-8.166 0.607,-12.707c0.156,-1.223 0.215,-2.227 0.178,-3.013c-0.037,-0.786 0.022,-1.79 0.178,-3.013c0.375,-3.144 1.004,-5.24 1.886,-6.288c0.882,-1.048 2.284,-1.572 4.205,-1.572c2.418,-0.175 4.383,0.655 5.896,2.489c1.513,1.834 2.983,4.498 4.41,7.991l12.205,29.083Z" style="stroke:#000;stroke-width:12.39px;"/></svg>